<?xml version="1.0" encoding="utf-8"?>
<!-- Generator: Adobe Illustrator 27.5.0, SVG Export Plug-In . SVG Version: 6.00 Build 0)  -->
<svg version="1.1" xmlns="http://www.w3.org/2000/svg" xmlns:xlink="http://www.w3.org/1999/xlink" x="0px" y="0px"
	 viewBox="0 0 1200 1200" style="enable-background:new 0 0 1200 1200;" xml:space="preserve">
<g id="Background">
	<g>
		<rect x="-0.5" y="-0.5" style="fill:#F7F6F5;" width="1201" height="1201"/>
	</g>
</g>
<g id="Graphic_Elements">
	<path d="M760.271,370.352c1.6,0,2.896-1.296,2.896-2.896v-11.195h0.882c1.6,0,2.896-1.296,2.896-2.896v-12.609h1.933
		c1.6,0,2.896-1.296,2.896-2.896v-17.104c0-1.6-1.296-2.896-2.896-2.896h-16.789c-30.349-56.307-89.661-92.105-154.169-92.105
		c-64.508,0-123.82,35.799-154.169,92.105h-9.63c-1.6,0-2.896,1.296-2.896,2.896v17.104c0,1.6,1.296,2.896,2.896,2.896h1.933v12.609
		c0,1.6,1.296,2.896,2.896,2.896h0.097v11.195c0,1.376,0.961,2.521,2.247,2.817V656.25c-1.248,0.294-2.179,1.408-2.179,2.746v16.237
		h-4.994c-1.204,0-2.179,0.976-2.179,2.179v13.71c0,1.204,0.976,2.179,2.179,2.179h2.001v13.368c0,1.562,1.266,2.828,2.828,2.828
		h325.099c1.562,0,2.828-1.266,2.828-2.828v-13.368h2c1.204,0,2.179-0.975,2.179-2.179v-13.71c0-1.204-0.976-2.179-2.179-2.179
		h-6.473v-16.237c0-1.399-1.018-2.553-2.352-2.78V370.352H760.271z M761.221,703.842H441.779v-9.891h319.442V703.842z
		 M597.92,231.41c61.39,0,117.902,33.514,147.691,86.449h-15.726c-27.832-45.527-77.82-74.098-131.965-74.098
		s-104.133,28.571-131.965,74.098H450.23C480.019,264.924,536.531,231.41,597.92,231.41z M636.313,269.334l-26.609,34.226
		l13.398-37.465C627.574,266.954,631.983,268.035,636.313,269.334z M655.29,276.629l-39.638,28.719l26.518-34.108
		C646.643,272.808,651.022,274.607,655.29,276.629z M678.965,290.987c4.026,3.046,7.894,6.309,11.564,9.798l-63.201,11.208
		L678.965,290.987z M621.98,307.915l39.14-28.358c4.226,2.259,8.324,4.745,12.285,7.438L621.98,307.915z M603.779,302.925v-39.102
		c4.554,0.2,9.068,0.625,13.526,1.279L603.779,302.925z M597.987,302.925l-13.779-38.531c4.527-0.468,9.102-0.713,13.712-0.713
		c0.022,0,0.045,0.001,0.067,0.001V302.925z M578.358,265.131c0.026,0.115,0.044,0.23,0.085,0.344l13.62,38.085l-27.67-35.59
		C568.975,266.783,573.635,265.831,578.358,265.131z M558.389,269.684l27.728,35.664l-41.933-30.381
		C548.803,272.943,553.547,271.183,558.389,269.684z M538.586,277.574c0.201,0.449,0.506,0.857,0.933,1.166l40.268,29.175
		l-55.099-22.414C529.159,282.59,533.797,279.939,538.586,277.574z M519.001,289.405c0.098,0.054,0.191,0.114,0.297,0.158
		l55.141,22.431l-68.17-12.089C510.302,296.144,514.552,292.635,519.001,289.405z M501.741,304.317
		c0.42,0.484,0.992,0.842,1.672,0.962l70.934,12.58h-84.18C493.735,313.074,497.605,308.554,501.741,304.317z M695.495,305.787
		c3.61,3.811,7.018,7.833,10.178,12.073h-78.254L695.495,305.787z M700.699,302.859c0.046-0.304,0.057-0.617,0-0.936
		c-0.268-1.511-1.661-2.526-3.167-2.36c-4.212-4.252-8.685-8.218-13.384-11.886c0.174-0.603,0.166-1.262-0.089-1.888
		c-0.603-1.481-2.291-2.195-3.774-1.591l-0.505,0.205c-10.807-7.783-22.695-14.022-35.31-18.487
		c-0.185-0.458-0.478-0.878-0.895-1.203c-0.97-0.753-2.264-0.788-3.259-0.194c-12.411-3.961-25.462-6.221-38.829-6.563
		c-0.195-0.042-0.397-0.065-0.605-0.065c-0.156,0-0.307,0.022-0.456,0.046c-0.836-0.015-1.669-0.046-2.507-0.046
		c-46.158,0-88.993,22.906-114.9,59.971h-6.742c26.745-40.312,72.373-65.381,121.642-65.381c49.269,0,94.898,25.069,121.643,65.381
		h-6.743C709.115,312.559,705.057,307.555,700.699,302.859z M447.119,323.651h15.452h10.061h6.576h3.413h3.482h223.636h3.482h3.413
		h6.576h10.06h15.452h3.2h3.151h10.909v11.312h-27.139h-15.809h-3.271h-3.265H479.343h-3.266h-3.271h-15.809h-19.98v-11.312h3.751
		h3.151H447.119z M738.835,370.352v285.816h-10.217V370.352v-0.068h10.217V370.352z M441.847,350.469v-8.624h28.506h10.504H720.99
		h4.499h35.664v8.624h-0.882H720.99h-14.418H495.642h-14.785h-38.913H441.847z M463.382,370.352v-0.068h9.128v0.068v285.816h-9.128
		V370.352z M481.227,370.352v-0.068h7.673v0.068v285.816h-7.673V370.352z M504.099,657.43v-22.567c0-4.794,3.641-8.752,8.302-9.26
		c0.334-0.036,0.672-0.058,1.016-0.058h13.496h177.114v31.943H504.099V657.43z M589.276,543.642h114.75v31.943H561.49V552.96
		c0-5.138,4.18-9.318,9.318-9.318H589.276z M622.685,502.691h81.341v31.943H593.78v-22.625c0-5.138,4.18-9.318,9.318-9.318H622.685z
		 M660.549,461.74h43.477v31.943H627.19v-22.625c0-5.138,4.18-9.318,9.318-9.318H660.549z M704.026,452.732h-38.973v-22.625
		c0-5.138,4.18-9.318,9.318-9.318h29.655V452.732z M531.416,616.479v-22.567c0-5.138,4.18-9.318,9.318-9.318h16.252h147.04v31.885
		v0.058h-172.61V616.479z M719.901,370.352v285.816h-6.809h-0.058h-0.586v-32.947v-4.363v-0.121v-36.467v-4.363V541.32v-4.363
		v-36.588v-4.363v-36.588v-4.363v-40.951v-43.752v-0.068h7.453V370.352z M446.951,370.352v-0.068h7.714v0.068v285.816h-7.714
		V370.352z M444.771,666.576v-2.828v-1.923h9.894h8.717h9.128h8.346h0.37h8.396h2.063v1.923v2.055v0.773v8.009h-10.829h-36.085
		V666.576z M709.835,666.576v-0.234v-0.06v-2.533v-1.923h3.199h0.058h6.809h1.089h7.627h10.217h8.717h9.197v1.923v2.828v8.009
		H720.99h-11.155V666.576z M757.375,364.56H720.99h-11.522v-8.299h11.522h36.385V364.56z M480.856,356.261h11.889v8.299h-11.889
		h-36.017v-8.299H480.856z M754.396,370.352v285.816h-6.845V370.352v-0.068h6.845V370.352z"/>
</g>
<g id="Text">
	<g>
		
			<text transform="matrix(1 0.0051 -0.0051 1 249.2317 909.6078)" style="font-family:'EBGaramond-Regular'; font-size:186px; letter-spacing:13;">HIDDEN</text>
	</g>
	<g>
		
			<text transform="matrix(1 0 0 1 484.6179 1008.4038)" style="font-family:'Montserrat-Light'; font-size:66px; letter-spacing:6;">HOTEL</text>
	</g>
	<path id="SVGID_x5F_1_x5F_" style="fill:none;" d="M362.646,438.475c0-130.666,105.926-236.591,236.592-236.591
		S835.829,307.81,835.829,438.475"/>
	<text>	<textPath  xlink:href="#SVGID_x5F_1_x5F_" startOffset="7.5315%">
<tspan  style="font-family:'EBGaramond-Medium'; font-size:41px; letter-spacing:75;">EST. 1993</tspan>	</textPath>
</text>
</g>
</svg>
